<svg xmlns="http://www.w3.org/2000/svg" width="1200" height="1200" viewBox="0 0 1200 1200" role="img" aria-label="Agate · Lot 01 · A">
  <defs>
    <radialGradient id="bg-agate-specimen-01-detail-a-placeholder.svg" cx="50%" cy="38%" r="75%">
      <stop offset="0%" stop-color="#3a2c22" />
      <stop offset="55%" stop-color="#191310" />
      <stop offset="100%" stop-color="#08080a" />
    </radialGradient>
    <linearGradient id="sheen-agate-specimen-01-detail-a-placeholder.svg" x1="0%" y1="0%" x2="100%" y2="100%">
      <stop offset="0%" stop-color="#c5a059" stop-opacity="0.16" />
      <stop offset="45%" stop-color="#c5a059" stop-opacity="0" />
      <stop offset="100%" stop-color="#c5a059" stop-opacity="0" />
    </linearGradient>
    <filter id="grain-agate-specimen-01-detail-a-placeholder.svg">
      <feTurbulence type="fractalNoise" baseFrequency="0.85" numOctaves="2" stitchTiles="stitch" result="noise" />
      <feColorMatrix in="noise" type="matrix" values="0 0 0 0 0  0 0 0 0 0  0 0 0 0 0  0 0 0 0.05 0" />
    </filter>
  </defs>
  <rect width="1200" height="1200" fill="url(#bg-agate-specimen-01-detail-a-placeholder.svg)" />
  <polygon points="647.9,749.3 476.7,944.4 306.9,859.5 297.1,645.9 306.8,473.8 526.9,500.4" fill="#a97c4f" fill-opacity="0.07" stroke="#a97c4f" stroke-opacity="0.18" stroke-width="1" />
  <polygon points="801.2,786.1 656.0,1011.9 356.1,990.4 308.6,777.0 248.9,565.5 514.0,467.6 729.3,522.8" fill="#c5a059" fill-opacity="0.14" stroke="#c5a059" stroke-opacity="0.18" stroke-width="1" />
  <polygon points="619.9,701.8 412.5,955.3 218.2,796.3 256.3,562.3 523.4,366.7" fill="#a97c4f" fill-opacity="0.09" stroke="#a97c4f" stroke-opacity="0.18" stroke-width="1" />
  <polygon points="939.4,768.9 801.5,886.7 677.2,879.8 579.3,715.6 590.5,503.2 730.3,493.4 885.7,545.7" fill="#a97c4f" fill-opacity="0.10" stroke="#a97c4f" stroke-opacity="0.18" stroke-width="1" />
  <polygon points="605.1,618.4 539.6,740.8 348.5,834.6 256.5,700.1 323.5,508.9 448.0,435.3 584.0,484.2" fill="#c5a059" fill-opacity="0.07" stroke="#c5a059" stroke-opacity="0.18" stroke-width="1" />
  <polygon points="822.7,833.0 735.3,946.5 545.2,1085.4 395.7,841.0 402.0,588.7 613.5,458.7 871.6,560.2" fill="#c5a059" fill-opacity="0.07" stroke="#c5a059" stroke-opacity="0.18" stroke-width="1" />
  <rect width="1200" height="1200" fill="url(#sheen-agate-specimen-01-detail-a-placeholder.svg)" />
  <rect width="1200" height="1200" filter="url(#grain-agate-specimen-01-detail-a-placeholder.svg)" opacity="0.6" />
  <rect x="0.5" y="0.5" width="1199" height="1199" fill="none" stroke="#c5a059" stroke-opacity="0.14" stroke-width="1" />
  <text x="600" y="1164" text-anchor="middle" font-family="Georgia, serif" font-size="19.2" fill="#c5a059" fill-opacity="0.55" letter-spacing="2">AGATE · LOT 01 · A</text>
  <text x="600" y="1186" text-anchor="middle" font-family="Helvetica, Arial, sans-serif" font-size="12" fill="#f2ede4" fill-opacity="0.32" letter-spacing="3">PLACEHOLDER — REPLACE WITH PHOTOGRAPHY</text>
</svg>