<svg xmlns="http://www.w3.org/2000/svg" width="1600" height="2000" viewBox="0 0 1600 2000" role="img" aria-label="Iranian Agate">
  <defs>
    <radialGradient id="bg-agate-hero-placeholder.svg" cx="50%" cy="38%" r="75%">
      <stop offset="0%" stop-color="#3a2c22" />
      <stop offset="55%" stop-color="#191310" />
      <stop offset="100%" stop-color="#08080a" />
    </radialGradient>
    <linearGradient id="sheen-agate-hero-placeholder.svg" x1="0%" y1="0%" x2="100%" y2="100%">
      <stop offset="0%" stop-color="#c5a059" stop-opacity="0.16" />
      <stop offset="45%" stop-color="#c5a059" stop-opacity="0" />
      <stop offset="100%" stop-color="#c5a059" stop-opacity="0" />
    </linearGradient>
    <filter id="grain-agate-hero-placeholder.svg">
      <feTurbulence type="fractalNoise" baseFrequency="0.85" numOctaves="2" stitchTiles="stitch" result="noise" />
      <feColorMatrix in="noise" type="matrix" values="0 0 0 0 0  0 0 0 0 0  0 0 0 0 0  0 0 0 0.05 0" />
    </filter>
  </defs>
  <rect width="1600" height="2000" fill="url(#bg-agate-hero-placeholder.svg)" />
  <polygon points="1210.0,1122.7 962.8,1289.7 656.5,1300.4 612.3,1013.9 768.9,760.5 1031.9,788.5" fill="#a97c4f" fill-opacity="0.11" stroke="#a97c4f" stroke-opacity="0.18" stroke-width="1" />
  <polygon points="1295.9,1177.5 1048.2,1556.6 810.1,1283.3 856.1,976.7 1094.4,885.6" fill="#c5a059" fill-opacity="0.15" stroke="#c5a059" stroke-opacity="0.18" stroke-width="1" />
  <polygon points="1339.8,1389.2 1102.5,1603.6 796.2,1567.2 726.1,1182.8 949.8,1062.0 1236.8,1090.1" fill="#a97c4f" fill-opacity="0.10" stroke="#a97c4f" stroke-opacity="0.18" stroke-width="1" />
  <polygon points="1173.0,825.7 849.1,1156.1 463.0,973.2 543.5,514.8 965.3,436.3" fill="#c5a059" fill-opacity="0.11" stroke="#c5a059" stroke-opacity="0.18" stroke-width="1" />
  <polygon points="1183.6,1040.6 1020.9,1302.8 745.5,1290.3 569.5,1059.2 622.9,759.9 796.6,535.8 1062.5,617.5" fill="#a97c4f" fill-opacity="0.10" stroke="#a97c4f" stroke-opacity="0.18" stroke-width="1" />
  <polygon points="826.6,880.0 632.4,1033.9 474.0,1035.8 362.6,882.0 368.6,705.5 512.4,591.3 754.2,683.6" fill="#a97c4f" fill-opacity="0.08" stroke="#a97c4f" stroke-opacity="0.18" stroke-width="1" />
  <rect width="1600" height="2000" fill="url(#sheen-agate-hero-placeholder.svg)" />
  <rect width="1600" height="2000" filter="url(#grain-agate-hero-placeholder.svg)" opacity="0.6" />
  <rect x="0.5" y="0.5" width="1599" height="1999" fill="none" stroke="#c5a059" stroke-opacity="0.14" stroke-width="1" />
  <text x="800" y="1964" text-anchor="middle" font-family="Georgia, serif" font-size="25.6" fill="#c5a059" fill-opacity="0.55" letter-spacing="2">IRANIAN AGATE</text>
  <text x="800" y="1986" text-anchor="middle" font-family="Helvetica, Arial, sans-serif" font-size="16" fill="#f2ede4" fill-opacity="0.32" letter-spacing="3">PLACEHOLDER — REPLACE WITH PHOTOGRAPHY</text>
</svg>